<?xml version="1.0" encoding="UTF-8"?>
<svg xmlns="http://www.w3.org/2000/svg" xmlns:xlink="http://www.w3.org/1999/xlink" viewBox="0 0 103.19 121.82">
  <defs>
    <style>
      .cls-1 {
        fill: url(#linear-gradient-2);
      }

      .cls-2, .cls-3 {
        fill: #fff;
      }

      .cls-3, .cls-4, .cls-5, .cls-6 {
        mix-blend-mode: screen;
      }

      .cls-7 {
        fill: #c2bfc0;
      }

      .cls-8 {
        isolation: isolate;
      }

      .cls-4 {
        fill: url(#linear-gradient-10);
      }

      .cls-9 {
        fill: url(#linear-gradient-6);
      }

      .cls-9, .cls-10, .cls-11, .cls-12, .cls-13, .cls-14 {
        mix-blend-mode: multiply;
      }

      .cls-10 {
        fill: #303134;
      }

      .cls-5 {
        fill: url(#linear-gradient-11);
      }

      .cls-15 {
        fill: #5a5b5d;
      }

      .cls-11 {
        fill: url(#linear-gradient-8);
      }

      .cls-12 {
        fill: #b3b5b8;
      }

      .cls-12, .cls-13 {
        opacity: .6;
      }

      .cls-6 {
        fill: #a9abae;
      }

      .cls-16 {
        fill: url(#linear-gradient-5);
      }

      .cls-17 {
        fill: #657483;
      }

      .cls-18 {
        fill: url(#linear-gradient-7);
      }

      .cls-19 {
        fill: #757578;
      }

      .cls-20 {
        fill: url(#linear-gradient-9);
      }

      .cls-13 {
        fill: #babcbe;
      }

      .cls-21 {
        fill: url(#linear-gradient-3);
      }

      .cls-22 {
        fill: url(#linear-gradient);
      }

      .cls-23 {
        fill: url(#linear-gradient-4);
      }

      .cls-24 {
        fill: url(#linear-gradient-12);
      }
    </style>
    <linearGradient id="linear-gradient" x1="57.84" y1="100.12" x2="61.12" y2="127.44" gradientUnits="userSpaceOnUse">
      <stop offset=".46" stop-color="#e5e0df"/>
      <stop offset="1" stop-color="#8ca99c"/>
    </linearGradient>
    <linearGradient id="linear-gradient-2" x1="59.04" y1="99.98" x2="62.32" y2="127.3" xlink:href="#linear-gradient"/>
    <linearGradient id="linear-gradient-3" x1="40.61" y1="100.12" x2="43.88" y2="127.44" xlink:href="#linear-gradient"/>
    <linearGradient id="linear-gradient-4" x1="41.8" y1="99.98" x2="45.08" y2="127.3" xlink:href="#linear-gradient"/>
    <linearGradient id="linear-gradient-5" x1="-10.95" y1="20.55" x2="38.93" y2="94.31" gradientUnits="userSpaceOnUse">
      <stop offset=".46" stop-color="#e5e0df"/>
      <stop offset="1" stop-color="#454949"/>
    </linearGradient>
    <linearGradient id="linear-gradient-6" x1="15.02" y1="63.64" x2="57.95" y2="82.98" xlink:href="#linear-gradient-5"/>
    <linearGradient id="linear-gradient-7" x1="641.35" y1="20.55" x2="691.23" y2="94.31" gradientTransform="translate(755.5) rotate(-180) scale(1 -1)" xlink:href="#linear-gradient-5"/>
    <linearGradient id="linear-gradient-8" x1="667.33" y1="63.64" x2="710.25" y2="82.98" gradientTransform="translate(755.5) rotate(-180) scale(1 -1)" xlink:href="#linear-gradient-5"/>
    <linearGradient id="linear-gradient-9" x1="33.01" y1="57.25" x2="74.28" y2="57.25" gradientUnits="userSpaceOnUse">
      <stop offset=".69" stop-color="#e5e0df"/>
      <stop offset="1" stop-color="#b2b8b4"/>
    </linearGradient>
    <linearGradient id="linear-gradient-10" x1="31.77" y1="63.51" x2="69.66" y2="80.58" xlink:href="#linear-gradient-5"/>
    <linearGradient id="linear-gradient-11" x1="44.92" y1="12.42" x2="53.69" y2="16.37" xlink:href="#linear-gradient-5"/>
    <linearGradient id="linear-gradient-12" x1="23.51" y1="89.3" x2="65.3" y2="89.3" xlink:href="#linear-gradient-5"/>
  </defs>
  <g class="cls-8">
    <g id="Layer_2" data-name="Layer 2">
      <g id="Layer_1-2" data-name="Layer 1">
        <g>
          <path class="cls-13" d="M71.42,102.47c.84-.05,1.8-.11,2.87-.18l.51-56.37c-1.41-2.96-2.82-6.71-3.48-10.21-.59-3.12-1.75-5.45-2.95-7.13t0,0c-.96-1.34-1.93-2.27-2.66-2.86-2.42-12.39-7.37-20.54-10.96-24.09-.71-.78-1.68-1.49-2.82-1.6-.11-.01-.22-.02-.33-.02-.11,0-.22,0-.33,.02-1.14,.11-2.1,.83-2.82,1.6-3.59,3.54-8.54,11.69-10.96,24.09-.73,.59-1.71,1.52-2.66,2.86,0,0,0,0,0,0-.82,1.15-1.79,3.15-2.41,4.96l.17,68.93h38.83Z"/>
          <g>
            <g>
              <path class="cls-22" d="M62.5,104.59h-4.69s-4.37,6.45-4.14,16.2c0,0,2.63,1.09,6.48,1.04,3.85,.05,6.48-1.04,6.48-1.04,.24-9.75-4.13-16.2-4.13-16.2Z"/>
              <g>
                <path class="cls-1" d="M64.67,109.07c-1.07-2.85-2.17-4.48-2.17-4.48h-4.69s-1.13,1.67-2.21,4.58c1.99,.37,5.11,.62,9.07-.1Z"/>
                <path class="cls-17" d="M53.69,118.9c-.01,.27-.02,.54-.02,.81,1.07,.33,3.12,.8,5.98,.8,1.96,0,4.31-.23,6.98-.88,0-.26,0-.52-.02-.78-6.69,1.67-11.37,.55-12.93,.06Z"/>
                <path class="cls-17" d="M53.88,116.41c-.03,.26-.06,.52-.08,.78,1.1,.32,3.1,.77,5.86,.77,1.93,0,4.24-.22,6.85-.85-.02-.26-.05-.52-.08-.77-6.34,1.54-10.85,.57-12.55,.07Z"/>
                <path class="cls-17" d="M65.65,112.2c-.07-.25-.13-.5-.2-.74-4.9,1.02-8.61,.56-10.62,.1-.07,.25-.13,.5-.2,.75,1.17,.27,2.86,.55,5.03,.55,1.72,0,3.74-.18,6-.66Z"/>
                <path class="cls-17" d="M54.26,113.97c-.05,.25-.1,.51-.14,.77,1.15,.31,3.03,.68,5.54,.68,1.85,0,4.04-.2,6.52-.77-.04-.26-.09-.51-.14-.76-5.71,1.31-9.88,.59-11.78,.08Z"/>
                <path class="cls-17" d="M64.93,109.8c-.09-.25-.18-.5-.26-.73-3.96,.72-7.07,.47-9.07,.1-.09,.24-.18,.49-.26,.75,1.11,.21,2.56,.4,4.31,.4,1.53,0,3.3-.14,5.28-.51Z"/>
              </g>
              <path class="cls-12" d="M62.5,104.59h-4.69s-4.37,6.45-4.14,16.2c0,0,.19,.08,.54,.19-.13-2.26,.44-4.57,.82-6.77,.24-1.46,.93-4.92,3.09-4.77,2.39,.17,1.89,10.08,1.96,12.39h.07c3.85,.05,6.48-1.04,6.48-1.04,.24-9.75-4.13-16.2-4.13-16.2Z"/>
              <path class="cls-12" d="M62.5,104.59h-2.4c2.47,5.18,3.43,11.19,3.69,16.95,1.77-.31,2.85-.75,2.85-.75,.24-9.75-4.13-16.2-4.13-16.2Z"/>
            </g>
            <g>
              <path class="cls-21" d="M45.26,104.59h-4.69s-4.37,6.45-4.13,16.2c0,0,2.63,1.09,6.48,1.04,3.85,.05,6.48-1.04,6.48-1.04,.24-9.75-4.13-16.2-4.13-16.2Z"/>
              <g>
                <path class="cls-23" d="M47.43,109.07c-1.07-2.85-2.17-4.48-2.17-4.48h-4.69s-1.13,1.67-2.21,4.58c1.99,.37,5.11,.62,9.07-.1Z"/>
                <path class="cls-17" d="M36.45,118.9c0,.27-.01,.54-.02,.81,1.07,.33,3.12,.8,5.98,.8,1.97,0,4.31-.23,6.98-.88,0-.26,0-.52-.02-.78-6.69,1.67-11.37,.55-12.93,.06Z"/>
                <path class="cls-17" d="M36.64,116.41c-.03,.26-.06,.52-.08,.78,1.1,.32,3.1,.77,5.86,.77,1.93,0,4.23-.22,6.85-.85-.02-.26-.05-.52-.08-.77-6.33,1.54-10.84,.57-12.55,.07Z"/>
                <path class="cls-17" d="M48.42,112.2c-.07-.25-.13-.5-.2-.74-4.9,1.02-8.61,.56-10.62,.1-.07,.25-.14,.5-.2,.75,1.17,.27,2.86,.55,5.03,.55,1.72,0,3.74-.18,6-.66Z"/>
                <path class="cls-17" d="M37.02,113.97c-.05,.25-.1,.51-.14,.77,1.15,.31,3.03,.68,5.54,.68,1.85,0,4.04-.2,6.52-.77-.04-.26-.09-.51-.14-.76-5.71,1.31-9.88,.59-11.78,.08Z"/>
                <path class="cls-17" d="M47.7,109.8c-.09-.25-.18-.5-.26-.73-3.96,.72-7.07,.47-9.07,.1-.09,.24-.18,.49-.26,.75,1.11,.21,2.56,.4,4.32,.4,1.53,0,3.3-.14,5.28-.51Z"/>
              </g>
              <path class="cls-12" d="M45.26,104.59h-4.69s-4.37,6.45-4.13,16.2c0,0,.19,.08,.54,.19-.13-2.26,.44-4.57,.81-6.77,.25-1.46,.93-4.92,3.09-4.77,2.39,.17,1.89,10.08,1.96,12.39h.07c3.85,.05,6.48-1.04,6.48-1.04,.24-9.75-4.13-16.2-4.13-16.2Z"/>
              <path class="cls-12" d="M45.26,104.59h-2.4c2.47,5.18,3.43,11.19,3.69,16.95,1.77-.31,2.85-.75,2.85-.75,.24-9.75-4.13-16.2-4.13-16.2Z"/>
            </g>
            <g>
              <path class="cls-16" d="M38.67,28.07s-5.28,2.81-6.8,10.82c-1.52,8.02-4.25,14.59-11.55,19.84C13.02,63.98-1.19,77.95,.08,102.18c0,0-.24,1.33,1.62,1.5,1.86,.18,33.34,2.17,33.34,2.17h5.22l-1.59-77.79Z"/>
              <path class="cls-2" d="M38.94,39.5s-4.38,2.32-5.63,8.97c-1.25,6.64-3.52,12.09-9.57,16.44-6.05,4.35-17.82,15.93-16.77,36.01,0,0-.2,1.1,1.34,1.25,1.54,.15,27.63,1.8,27.63,1.8h4.32l-1.32-64.46Z"/>
              <path class="cls-9" d="M38.67,28.07s-1.97,1.05-3.85,3.69c-.4,6.75-2.76,46.27-3.4,56.51-.71,11.2-7.19,11.67-14.98,11.91-7.78,.24-13.21-2.01-13.56-9.08-.35-7.07,6.97-22.01,6.97-22.02C4.23,76.57-.69,87.49,.08,102.18c0,0-.24,1.33,1.62,1.5,1.86,.18,33.34,2.17,33.34,2.17h5.22l-1.59-77.79Z"/>
              <path class="cls-3" d="M32.18,39.5s-1.42,10.61-7.61,16.51c-6.19,5.9-13.92,8.9-17.27,19.46,0,0,2.3-7.61,10.85-13.33,8.55-5.72,13.8-10.49,14.03-22.64Z"/>
            </g>
            <g>
              <path class="cls-18" d="M64.53,28.07s5.28,2.81,6.8,10.82c1.52,8.02,4.25,14.59,11.55,19.84,7.3,5.25,21.51,19.22,20.24,43.46,0,0,.24,1.33-1.62,1.5-1.86,.18-33.35,2.17-33.35,2.17h-5.22l1.59-77.79Z"/>
              <path class="cls-2" d="M64.25,39.5s4.38,2.32,5.63,8.97c1.26,6.64,3.53,12.09,9.57,16.44,6.05,4.35,17.82,15.93,16.77,36.01,0,0,.2,1.1-1.34,1.25-1.54,.15-27.63,1.8-27.63,1.8h-4.32l1.32-64.46Z"/>
              <path class="cls-11" d="M64.53,28.07s1.97,1.05,3.85,3.69c.4,6.75,2.76,46.27,3.4,56.51,.71,11.2,7.19,11.67,14.98,11.91,7.78,.24,13.21-2.01,13.56-9.08,.35-7.07-6.97-22.01-6.98-22.02,5.62,7.49,10.54,18.41,9.77,33.11,0,0,.24,1.33-1.62,1.5-1.86,.18-33.35,2.17-33.35,2.17h-5.22l1.59-77.79Z"/>
              <path class="cls-3" d="M71.01,39.5s1.42,10.61,7.61,16.51c6.19,5.9,13.92,8.9,17.27,19.46,0,0-2.3-7.61-10.85-13.33-8.55-5.72-13.8-10.49-14.03-22.64Z"/>
            </g>
            <path class="cls-20" d="M66.89,37.47c-1.4-17.26-7.77-28.36-12.14-32.66-.71-.78-1.68-1.49-2.82-1.6-.11-.01-.22-.02-.33-.02-.11,0-.22,0-.33,.02-1.14,.11-2.1,.83-2.82,1.6-4.37,4.3-10.74,15.4-12.14,32.66-1.43,17.6-.74,68.39-.74,68.39,0,0,.29,2.84,6.63,4.43,2.27,.57,5.32,.98,9.4,1.04,4.08-.06,7.13-.47,9.4-1.04,6.34-1.59,6.63-4.43,6.63-4.43,0,0,.69-50.79-.74-68.39Z"/>
            <path class="cls-4" d="M47.88,31.55s-8.46,1.77-9.08,10.14c-.62,8.37,0,61.67,0,61.67,0,0-.41,3.42,2.86,4.6,3.27,1.18,10.86,2,10.54-4.95-.32-6.96,0-65.48,0-65.48,0,0,.55-6.93-4.32-5.99Z"/>
            <path class="cls-5" d="M50.95,4.12s-2.2,.72-5.15,5.43c-2.95,4.72-6.31,13.09-4.3,12.21,0,0,2.4-2.65,9.45-3.72,0,0,1.04-.24,1.04-1.89s.45-12.52-1.04-12.04Z"/>
            <g class="cls-14">
              <path class="cls-7" d="M66.89,37.47c-1.4-17.26-7.77-28.36-12.14-32.66-.71-.78-1.68-1.49-2.82-1.6-.11-.01-.22-.02-.33-.02-.11,0-.22,0-.33,.02-.04,0-.09,.02-.13,.02,.72,.2,3.43,1.31,5.49,6.71,2.39,6.28,2.57,8.87,2.57,8.87,0,0-.05,1.75-1.44,1.39-1.39-.36-5.89-.32-8.11-.34l3.42,7.83s5.24,.64,7.63,5.86c2.39,5.22,1.24,71.37,1.24,71.37,0,0-.27,3.8-5.04,4.6-4.78,.8-17.24,1.33-19.72-5.13-1-2.61-1.48-5.78-1.7-8.62,.05,6.11,.1,10.08,.1,10.08,0,0,.29,2.84,6.63,4.43,2.27,.57,5.32,.98,9.4,1.04,4.08-.06,7.13-.47,9.4-1.04,6.34-1.59,6.63-4.43,6.63-4.43,0,0,.69-50.79-.74-68.39Z"/>
            </g>
            <path class="cls-10" d="M62.7,26.26c-.54-2.14-2.15-3.65-4-4.72-1.08-.62-2.29-1.05-3.51-1.29-2.81-.55-5.61-.52-8.4,.13,0,0-5.75,1.33-6.9,5.88-1.15,4.56-1.95,11.37-1.33,11.28,.62-.09,.39-3.26,1.68-4.78,1.92-2.26,4.22-4.11,7.23-4.71,3.02-.61,6.66-.63,9.55,.54,1.79,.73,3.37,1.93,4.66,3.37,.23,.26,.43,.54,.65,.8,1.29,1.52,1.06,4.69,1.68,4.78,.62,.09-.18-6.72-1.33-11.28Z"/>
            <path class="cls-10" d="M62.7,26.26c-.54-2.14-2.15-3.65-4-4.72-1.08-.62-2.29-1.05-3.51-1.29-.74-.15-1.47-.25-2.21-.31,.06,.63,1.06,5.43-2.08,6.01-1.25,.23-2.48,.38-3.69,.81-4.52,1.59-8.59,5.44-8.38,10.45,.32-.86,.36-3.2,1.41-4.45,1.92-2.26,4.22-4.11,7.23-4.71,3.02-.61,6.66-.63,9.55,.54,1.79,.73,3.37,1.93,4.66,3.37,.23,.26,.43,.54,.65,.8,1.29,1.52,1.06,4.69,1.68,4.78,.62,.09-.18-6.72-1.33-11.28Z"/>
            <path class="cls-6" d="M43.03,23.09c.91-.88,2.11-1.49,3.36-1.91,1.48-.54,3-.77,4.56-.97-5.48,.07-7.73,1.81-9.25,3.44-.9,.97-1.41,2.17-1.69,3.07,.7-1.39,1.79-2.64,3.02-3.63Z"/>
            <path class="cls-24" d="M35.4,82.66c0,4.16,.03,8.05,.05,11.41,5.26,1.59,17.86,4.3,32.29-.37,.02-3.37,.04-7.26,.05-11.41-14.49,4.7-27.15,1.96-32.39,.37Z"/>
            <path class="cls-2" d="M55.02,76.31c-.35-2.39-3.09-2.12-3.09-2.12h-.66s-2.74-.27-3.09,2.12c-.35,2.39,1.55,35.2,1.55,35.2,0,0-.33,1.86,1.54,2.38h.66c1.87-.52,1.54-2.38,1.54-2.38,0,0,1.9-32.81,1.54-35.2Z"/>
            <path class="cls-15" d="M55.02,76.31c-.35-2.39-3.09-2.12-3.09-2.12h-.66s-2.74-.27-3.09,2.12c-.35,2.39,1.55,35.2,1.55,35.2,0,0-.33,1.86,1.54,2.38h.66c1.87-.52,1.54-2.38,1.54-2.38,0,0,1.9-32.81,1.54-35.2Z"/>
            <path class="cls-2" d="M51.95,77.03c-.05-1.8-1.15-1.56-1.15-1.56h-.24s-.97-.16-1.03,1.65c-.06,1.8,.92,35.21,.92,35.21,0,0,2.48-2.01,1.49-35.29Z"/>
          </g>
          <g>
            <path class="cls-15" d="M66.62,51.72c0,.55-.45,1-1,1h0c-.55,0-1-.45-1-1v-.71c0-.55,.45-1,1-1h0c.55,0,1,.45,1,1v.71Z"/>
            <path class="cls-15" d="M66.62,58.57c0,.55-.45,1-1,1h0c-.55,0-1-.45-1-1v-.71c0-.55,.45-1,1-1h0c.55,0,1,.45,1,1v.71Z"/>
            <path class="cls-15" d="M66.62,65.43c0,.55-.45,1-1,1h0c-.55,0-1-.45-1-1v-.71c0-.55,.45-1,1-1h0c.55,0,1,.45,1,1v.71Z"/>
            <path class="cls-15" d="M66.62,72.29c0,.55-.45,1-1,1h0c-.55,0-1-.45-1-1v-.71c0-.55,.45-1,1-1h0c.55,0,1,.45,1,1v.71Z"/>
          </g>
          <g>
            <path class="cls-19" d="M38.4,51.72c0,.55-.45,1-1,1h0c-.55,0-1-.45-1-1v-.71c0-.55,.45-1,1-1h0c.55,0,1,.45,1,1v.71Z"/>
            <path class="cls-19" d="M38.4,58.57c0,.55-.45,1-1,1h0c-.55,0-1-.45-1-1v-.71c0-.55,.45-1,1-1h0c.55,0,1,.45,1,1v.71Z"/>
            <path class="cls-19" d="M38.4,65.43c0,.55-.45,1-1,1h0c-.55,0-1-.45-1-1v-.71c0-.55,.45-1,1-1h0c.55,0,1,.45,1,1v.71Z"/>
            <path class="cls-19" d="M38.4,72.29c0,.55-.45,1-1,1h0c-.55,0-1-.45-1-1v-.71c0-.55,.45-1,1-1h0c.55,0,1,.45,1,1v.71Z"/>
          </g>
          <g>
            <path class="cls-15" d="M9.72,101.17c0,.29-.23,.52-.51,.52s-.52-.23-.52-.52,.23-.51,.52-.51,.51,.23,.51,.51Z"/>
            <path class="cls-15" d="M14.7,101.69c0,.29-.23,.52-.52,.52s-.52-.23-.52-.52,.23-.52,.52-.52,.52,.23,.52,.52Z"/>
            <path class="cls-15" d="M19.68,101.95c0,.29-.23,.52-.52,.52s-.52-.23-.52-.52,.23-.52,.52-.52,.52,.23,.52,.52Z"/>
            <path class="cls-15" d="M24.67,102.34c0,.29-.23,.52-.52,.52s-.52-.23-.52-.52,.23-.52,.52-.52,.52,.23,.52,.52Z"/>
            <path class="cls-15" d="M29.65,102.27c0,.29-.23,.52-.51,.52s-.52-.23-.52-.52,.23-.52,.52-.52,.51,.23,.51,.52Z"/>
            <path class="cls-15" d="M34.63,102.79c0,.29-.23,.52-.52,.52s-.52-.23-.52-.52,.23-.52,.52-.52,.52,.23,.52,.52Z"/>
          </g>
          <g>
            <path class="cls-15" d="M94.08,101.17c0,.29,.23,.52,.52,.52s.52-.23,.52-.52-.23-.51-.52-.51-.52,.23-.52,.51Z"/>
            <path class="cls-15" d="M89.09,101.69c0,.29,.23,.52,.52,.52s.52-.23,.52-.52-.23-.52-.52-.52-.52,.23-.52,.52Z"/>
            <path class="cls-15" d="M84.11,101.95c0,.29,.23,.52,.52,.52s.52-.23,.52-.52-.23-.52-.52-.52-.52,.23-.52,.52Z"/>
            <path class="cls-15" d="M79.13,102.34c0,.29,.23,.52,.52,.52s.52-.23,.52-.52-.23-.52-.52-.52-.52,.23-.52,.52Z"/>
            <path class="cls-15" d="M74.15,102.27c0,.29,.23,.52,.52,.52s.52-.23,.52-.52-.23-.52-.52-.52-.52,.23-.52,.52Z"/>
            <path class="cls-15" d="M69.16,102.79c0,.29,.23,.52,.52,.52s.52-.23,.52-.52-.23-.52-.52-.52-.52,.23-.52,.52Z"/>
          </g>
        </g>
      </g>
    </g>
  </g>
</svg>